<!-- by TradingView --><svg xmlns="http://www.w3.org/2000/svg" width="56" height="56"><path fill="url(#a42br0tfh)" d="M0 0h56v56H0z"/><path d="M27.14 40l-3.73-8h5.86l3.68 8h-5.81z" fill="#18B4E4"/><path d="M24.63 39.82a12.5 12.5 0 118.15-5.2l-2.82-6.35A7.5 7.5 0 1022.41 35l2.22 4.82zM38 26h6v14h-6z" fill="#fff"/><path d="M38 22.17c0-.45.27-.85.68-1.02L44 19v2.83c0 .45-.27.85-.68 1.02L38 25v-2.83z" fill="#20B0E5"/><defs><linearGradient id="a42br0tfh" x1="10.42" y1="9.71" x2="68.15" y2="76.02" gradientUnits="userSpaceOnUse"><stop stop-color="#1A1E21"/><stop offset="1" stop-color="#06060A"/></linearGradient></defs></svg>