<!-- by TradingView --><svg width="56" height="56" xmlns="http://www.w3.org/2000/svg"><path fill="url(#paint0_linear)" d="M0 0h56v56H0z"/><path d="M24.798 16.605c1.09-2.263 4.313-2.263 5.404 0l10.107 20.96A1 1 0 0139.407 39H15.592a1 1 0 01-.9-1.434l10.106-20.961z" fill="#0079F0"/><path d="M23.447 15.953c1.636-3.394 6.47-3.394 8.107 0L41.66 36.914c.8 1.66-.41 3.586-2.252 3.586H15.592c-1.843 0-3.052-1.926-2.252-3.586l10.107-20.96zm5.404 1.303c-.545-1.131-2.157-1.131-2.702 0L16.389 37.5h22.223l-9.76-20.244z" fill="#fff"/><defs><linearGradient id="paint0_linear" x1="10.418" y1="9.712" x2="68.147" y2="76.017" gradientUnits="userSpaceOnUse"><stop stop-color="#1A1E21"/><stop offset="1" stop-color="#06060A"/></linearGradient></defs></svg>