<!-- by TradingView --><svg width="56" height="56" xmlns="http://www.w3.org/2000/svg"><path d="M0 28C0 12.536 12.536 0 28 0s28 12.536 28 28-12.536 28-28 28S0 43.464 0 28z" fill="#523B97"/><path d="M17.111 12.078c5.15-.472 10.203 1.21 13.857 4.608 6.71 6.24 6.71 16.388 0 22.627-3.654 3.398-8.706 5.081-13.857 4.609a.122.122 0 01-.111-.117c0-.058.049-.11.111-.116 3.89-.356 7.997-1.945 10.76-4.52C31.072 36.19 33 32.212 33 28s-1.928-8.158-5.13-11.135c-2.762-2.576-6.868-4.21-10.759-4.567a.102.102 0 01-.111-.103c0-.059.049-.11.111-.117z" fill="#fff"/><path d="M40.403 24h-19.87c-.156 0-.511.365-.532.94-.02.574.322 1.06.531 1.06h19.87c.215 0 .598-.43.598-1.06 0-.63-.337-.94-.597-.94zM40.403 30h-19.87c-.156 0-.511.365-.532.94-.02.574.322 1.06.531 1.06h19.87c.215 0 .598-.43.598-1.06 0-.63-.337-.94-.597-.94z" fill="#fff"/></svg>