<svg id="svg" version="1.1" xmlns="http://www.w3.org/2000/svg" xmlns:xlink="http://www.w3.org/1999/xlink" width="400" height="400" viewBox="0, 0, 400,400"><g id="svgg"><path id="path0" d="M194.800 82.442 C 192.270 82.622,187.230 82.957,183.600 83.186 C 175.960 83.669,168.143 85.115,166.596 86.332 C 165.335 87.324,161.276 88.883,157.051 89.999 C 153.412 90.959,152.165 91.551,149.402 93.625 C 148.301 94.451,146.302 95.485,144.960 95.922 C 141.664 96.996,140.130 97.828,138.004 99.694 C 137.016 100.561,134.710 101.995,132.879 102.882 C 130.402 104.080,129.299 104.872,128.571 105.973 C 128.032 106.787,126.490 108.161,125.144 109.026 C 123.798 109.892,122.276 111.262,121.761 112.072 C 121.247 112.881,120.338 113.871,119.742 114.272 C 118.345 115.210,115.210 118.345,114.272 119.742 C 113.871 120.338,112.850 121.263,112.003 121.798 C 110.975 122.447,110.026 123.590,109.150 125.233 C 108.318 126.795,107.289 128.059,106.339 128.688 C 105.187 129.450,104.419 130.546,103.015 133.432 C 102.011 135.497,100.400 138.074,99.436 139.160 C 97.893 140.897,96.555 143.576,95.779 146.484 C 95.644 146.988,94.833 148.390,93.975 149.600 C 91.637 152.901,90.870 154.847,90.227 159.120 C 89.516 163.846,88.792 165.970,86.995 168.592 C 84.759 171.858,84.433 174.091,83.585 192.000 C 83.253 199.004,83.292 201.936,83.793 207.800 C 84.132 211.760,84.508 217.160,84.630 219.800 C 84.915 225.957,85.391 228.092,86.822 229.623 C 88.734 231.671,89.929 234.685,90.617 239.200 C 91.543 245.283,91.924 246.576,92.919 247.018 C 94.609 247.768,96.647 252.269,97.395 256.904 C 97.567 257.971,98.146 258.901,99.386 260.104 C 100.578 261.260,101.793 263.170,103.202 266.101 C 104.769 269.361,105.492 270.458,106.191 270.633 C 107.485 270.958,109.011 272.669,109.998 274.902 C 110.621 276.311,111.242 277.009,112.396 277.598 C 113.911 278.371,116.000 280.637,116.000 281.507 C 116.000 282.183,118.009 284.400,118.622 284.400 C 119.571 284.400,121.984 286.825,122.318 288.116 C 122.578 289.120,123.158 289.623,125.419 290.805 C 127.571 291.931,128.407 292.631,129.115 293.903 C 129.869 295.256,130.397 295.668,132.115 296.238 C 134.516 297.036,138.571 299.679,139.449 301.019 C 139.778 301.521,140.262 302.025,140.524 302.138 C 140.786 302.250,142.483 302.969,144.296 303.734 C 147.105 304.921,150.727 307.207,151.114 308.039 C 151.316 308.473,156.465 309.958,161.314 310.981 C 164.963 311.751,166.499 312.284,168.114 313.342 C 176.323 318.721,223.332 319.084,231.600 313.833 C 233.503 312.625,238.446 310.970,242.400 310.219 C 244.469 309.826,248.800 308.297,248.800 307.960 C 248.800 307.273,253.072 304.618,255.837 303.586 C 257.684 302.897,259.485 301.876,260.519 300.931 C 261.444 300.087,264.131 298.497,266.491 297.398 C 268.852 296.299,270.787 295.248,270.791 295.063 C 270.811 294.298,272.561 292.580,274.890 291.040 C 276.767 289.800,277.618 288.913,278.386 287.400 C 279.187 285.821,279.821 285.185,281.400 284.376 C 282.942 283.587,283.595 282.945,284.252 281.576 C 285.244 279.509,286.009 278.761,288.177 277.742 C 289.400 277.166,290.017 276.481,290.927 274.687 C 291.801 272.965,292.546 272.114,293.844 271.353 C 295.252 270.528,295.671 270.010,296.018 268.666 C 297.302 263.692,299.855 259.200,301.399 259.200 C 301.984 259.200,302.627 257.680,303.005 255.400 C 303.540 252.178,305.591 247.641,307.033 246.491 C 307.878 245.817,308.473 244.942,308.590 244.200 C 310.855 229.853,311.475 227.680,313.544 226.823 L 314.719 226.337 315.059 220.068 C 315.247 216.621,315.365 211.730,315.322 209.200 C 315.279 206.670,315.131 197.789,314.992 189.464 L 314.740 174.328 313.672 174.596 C 312.117 174.987,311.512 175.628,311.712 176.676 C 311.811 177.191,311.692 177.603,311.445 177.606 C 311.159 177.610,311.143 177.717,311.400 177.906 C 311.620 178.068,311.831 179.081,311.868 180.157 C 311.906 181.233,312.086 182.223,312.268 182.357 C 312.589 182.592,312.823 183.564,312.856 184.800 C 312.865 185.130,313.026 185.940,313.214 186.600 C 314.800 192.156,314.239 199.280,312.039 201.529 C 309.910 203.705,308.461 208.715,308.403 214.100 C 308.401 214.265,308.130 214.400,307.800 214.400 C 307.470 214.400,307.200 214.559,307.200 214.753 C 307.200 215.439,305.576 215.518,303.359 214.939 C 301.495 214.452,301.004 214.442,300.458 214.881 C 298.945 216.095,297.384 216.671,296.400 216.378 C 294.939 215.942,264.653 215.934,262.677 216.369 C 261.755 216.572,259.425 217.045,257.500 217.420 C 255.131 217.882,254.000 218.279,254.000 218.651 C 254.000 219.071,253.246 219.200,250.800 219.200 C 248.933 219.200,247.600 219.033,247.600 218.800 C 247.600 218.580,247.257 218.400,246.838 218.400 C 246.419 218.400,245.384 218.055,244.538 217.633 C 242.659 216.696,241.543 216.255,240.954 216.217 C 240.709 216.201,240.210 215.940,239.845 215.637 C 239.479 215.334,239.067 215.200,238.927 215.340 C 238.788 215.479,238.432 215.393,238.137 215.148 C 237.842 214.903,237.600 214.804,237.600 214.928 C 237.600 215.053,237.019 214.624,236.309 213.975 C 235.598 213.327,234.711 212.699,234.336 212.580 C 233.962 212.461,233.542 211.847,233.403 211.215 C 233.265 210.584,232.892 209.967,232.576 209.846 C 232.259 209.724,231.978 209.214,231.951 208.713 C 231.924 208.211,231.747 208.880,231.556 210.200 C 231.011 213.978,228.389 217.200,225.858 217.200 C 225.311 217.200,225.200 217.666,225.200 219.971 C 225.200 227.558,224.208 230.616,221.300 231.997 C 220.145 232.545,219.200 233.212,219.200 233.478 C 219.200 236.668,216.218 242.468,213.994 243.603 C 212.857 244.183,212.490 244.683,212.082 246.211 C 211.484 248.447,209.723 250.266,207.809 250.625 C 206.697 250.833,206.435 251.090,206.233 252.167 C 205.383 256.698,196.493 258.114,193.934 254.126 C 193.420 253.325,192.730 252.250,192.400 251.736 C 192.070 251.222,191.591 250.801,191.336 250.801 C 190.351 250.799,188.822 248.359,188.558 246.368 C 188.286 244.314,187.363 243.200,185.933 243.200 C 184.275 243.200,183.257 241.519,182.059 236.800 C 181.153 233.234,180.701 232.102,180.048 231.764 C 177.684 230.542,176.723 228.597,176.016 223.600 C 175.081 216.990,174.718 214.974,174.357 214.400 C 171.358 209.628,171.185 199.440,174.001 193.400 C 174.670 191.966,175.032 189.660,175.820 181.800 C 176.344 176.578,177.649 173.104,179.925 170.873 C 181.199 169.625,181.605 168.821,182.195 166.376 C 183.337 161.648,185.097 158.661,187.166 157.938 C 187.384 157.862,188.248 156.540,189.087 155.000 C 190.377 152.632,190.933 152.028,192.690 151.083 C 194.102 150.324,195.056 149.453,195.669 148.364 C 196.867 146.231,198.672 145.188,201.846 144.794 C 206.314 144.240,214.804 140.253,216.314 138.000 C 217.792 135.794,221.095 134.646,231.800 132.615 C 234.880 132.031,238.285 131.158,239.367 130.676 C 241.189 129.864,241.953 129.800,249.767 129.800 L 258.200 129.800 260.873 131.095 C 264.568 132.885,268.913 134.247,272.000 134.582 C 276.219 135.039,277.428 135.501,279.476 137.436 C 281.506 139.356,283.197 140.306,286.800 141.553 C 288.398 142.106,289.242 142.683,289.885 143.657 C 291.729 146.453,292.052 146.777,294.085 147.874 C 295.869 148.837,296.270 149.279,296.856 150.928 C 297.658 153.183,298.783 154.285,300.637 154.633 C 302.542 154.991,302.683 155.326,302.885 160.000 C 303.068 164.249,304.153 168.000,305.198 168.000 C 305.442 168.000,305.887 168.589,306.187 169.308 C 307.402 172.214,308.271 172.366,309.017 169.802 C 310.979 163.051,310.090 153.199,307.356 151.408 C 306.051 150.553,304.829 147.998,304.321 145.064 C 303.866 142.428,302.368 139.425,301.197 138.798 C 300.317 138.327,297.344 134.027,296.359 131.800 C 295.960 130.898,294.918 129.586,294.044 128.883 C 293.169 128.180,291.947 126.666,291.327 125.517 C 290.675 124.309,289.441 122.862,288.400 122.085 C 287.410 121.346,286.187 119.991,285.682 119.074 C 284.598 117.104,282.858 115.200,282.142 115.200 C 281.579 115.200,279.118 112.808,277.660 110.844 C 277.143 110.147,276.063 109.303,275.260 108.968 C 273.713 108.323,271.201 106.130,271.198 105.422 C 271.197 105.190,269.671 104.221,267.807 103.269 C 265.942 102.317,263.558 100.767,262.509 99.825 C 260.372 97.909,258.215 96.704,255.712 96.030 C 254.786 95.781,252.807 94.749,251.314 93.738 C 248.164 91.604,245.262 90.235,243.010 89.822 C 239.877 89.247,235.211 87.558,234.045 86.576 C 231.960 84.822,221.961 83.250,208.800 82.606 C 206.270 82.483,203.120 82.321,201.800 82.248 C 200.480 82.174,197.330 82.261,194.800 82.442 M181.398 258.003 C 181.263 258.221,180.038 258.395,178.676 258.388 C 175.953 258.374,176.171 257.943,179.384 256.983 C 181.037 256.489,182.025 256.989,181.398 258.003 M174.800 258.968 C 174.800 259.281,175.353 259.658,176.028 259.806 C 176.818 259.980,177.184 260.265,177.053 260.605 C 176.942 260.896,177.121 261.237,177.451 261.364 C 177.816 261.504,177.927 261.791,177.735 262.097 C 177.562 262.374,177.467 262.887,177.524 263.237 C 177.633 263.899,174.615 266.180,174.073 265.845 C 173.627 265.569,156.274 265.147,142.171 265.069 C 128.119 264.991,127.727 264.914,129.245 262.517 C 130.048 261.248,131.812 260.794,136.800 260.571 C 137.790 260.527,138.690 260.455,138.800 260.411 C 139.357 260.188,142.800 260.136,142.800 260.351 C 142.801 260.488,143.836 260.551,145.100 260.492 C 146.365 260.432,150.550 260.303,154.400 260.203 C 158.250 260.104,163.020 259.810,165.000 259.549 C 174.919 258.245,174.800 258.252,174.800 258.968 " stroke="none" fill="#e79445" fill-rule="evenodd"></path><path id="path1" d="M143.200 8.009 L 143.200 16.018 141.600 19.200 C 140.156 22.072,140.000 22.676,140.000 25.400 C 140.000 28.124,139.844 28.728,138.400 31.600 L 136.800 34.782 136.800 41.400 L 136.800 48.018 138.375 51.150 L 139.950 54.283 138.275 55.871 C 137.354 56.744,136.088 57.776,135.462 58.163 C 133.310 59.496,131.366 65.065,132.981 65.273 L 133.963 65.400 133.068 68.048 C 132.576 69.505,131.730 71.349,131.187 72.146 L 130.200 73.595 124.080 73.597 C 116.454 73.601,114.211 72.575,113.389 68.710 C 112.883 66.328,112.276 66.000,108.371 66.000 C 105.929 66.000,104.813 65.848,104.689 65.500 C 104.561 65.139,104.200 65.228,103.387 65.820 C 102.161 66.713,102.120 66.776,100.634 70.000 C 100.077 71.210,99.423 72.470,99.182 72.800 C 98.348 73.941,102.494 81.019,104.843 82.465 C 107.308 83.981,108.400 85.502,108.400 87.417 L 108.400 88.910 110.900 88.652 C 112.275 88.511,114.438 88.284,115.707 88.148 L 118.014 87.900 120.072 89.958 L 122.131 92.016 120.253 93.207 C 119.221 93.862,118.272 94.668,118.145 94.999 C 117.965 95.468,117.175 95.600,114.557 95.600 L 111.200 95.600 109.600 94.000 C 108.267 92.667,108.000 92.133,108.000 90.800 L 108.000 89.200 106.169 89.200 C 103.001 89.200,102.000 90.627,102.000 95.145 L 102.000 98.751 103.900 99.027 C 110.556 99.992,109.440 108.393,102.633 108.561 C 99.574 108.637,97.200 112.213,97.200 116.744 C 97.200 117.555,96.923 117.998,96.213 118.321 C 94.994 118.877,92.941 121.648,92.601 123.198 C 92.370 124.247,92.156 124.373,90.170 124.621 C 87.857 124.910,83.959 127.764,84.557 128.730 C 84.837 129.184,82.788 133.208,81.568 134.600 C 81.182 135.040,80.523 136.425,80.103 137.678 L 79.339 139.956 78.107 139.206 L 76.874 138.457 76.037 140.403 C 75.577 141.473,75.200 142.475,75.200 142.630 C 75.200 142.785,74.808 143.697,74.329 144.656 L 73.458 146.400 70.129 146.400 L 66.800 146.400 66.800 144.800 L 66.800 143.200 63.618 143.200 C 60.877 143.200,60.230 143.340,58.951 144.208 C 58.134 144.762,55.985 145.667,54.175 146.219 C 52.366 146.771,50.281 147.629,49.542 148.127 L 48.200 149.031 48.093 158.716 L 47.986 168.400 49.593 168.400 L 51.200 168.400 51.200 171.600 L 51.200 174.800 49.596 174.800 L 47.991 174.800 49.596 177.991 L 51.200 181.182 51.200 191.014 C 51.200 202.723,51.642 206.400,53.049 206.400 L 53.980 206.400 54.101 199.900 L 54.221 193.400 54.311 199.900 L 54.400 206.400 57.569 206.400 L 60.738 206.400 61.200 205.000 C 61.599 203.791,61.794 203.633,62.631 203.844 L 63.600 204.087 63.600 192.523 L 63.600 180.959 65.368 180.101 L 67.136 179.242 67.423 182.311 C 67.582 184.000,67.598 192.315,67.461 200.791 C 67.323 209.266,67.208 218.315,67.205 220.900 L 67.200 225.600 65.600 225.600 L 64.000 225.600 64.000 232.130 C 64.000 240.757,65.209 249.246,66.603 250.402 C 66.931 250.675,67.202 251.191,67.204 251.549 C 67.214 253.271,71.062 259.372,72.571 260.060 C 73.835 260.636,74.478 263.292,73.889 265.500 L 73.435 267.200 70.153 267.200 L 66.871 267.200 66.036 265.474 C 65.356 264.069,65.200 262.988,65.200 259.674 C 65.200 253.567,64.409 253.109,55.576 254.099 C 48.330 254.911,48.234 254.992,48.089 260.442 C 47.963 265.211,48.769 266.823,51.997 268.247 C 53.229 268.790,53.482 269.061,53.140 269.472 C 52.802 269.879,52.885 270.000,53.502 270.000 C 53.942 270.000,54.549 270.299,54.851 270.664 C 55.449 271.387,59.071 273.190,59.938 273.196 C 60.234 273.198,60.999 273.572,61.638 274.027 C 62.832 274.877,63.121 274.547,62.386 273.174 C 61.787 272.055,62.514 272.224,63.794 273.500 C 65.343 275.046,65.552 275.885,64.856 277.762 C 63.910 280.316,63.748 289.579,64.598 292.609 C 67.182 301.827,61.153 306.421,50.962 303.000 C 46.604 301.537,36.422 301.518,31.728 302.963 C 24.583 305.164,18.122 306.018,8.700 306.009 L 0.000 306.000 0.000 353.000 L 0.000 400.000 200.000 400.000 L 400.000 400.000 400.000 200.000 L 400.000 0.000 271.600 0.000 L 143.200 0.000 143.200 8.009 M246.400 57.344 C 246.400 61.812,245.835 62.400,241.541 62.400 C 239.154 62.400,238.001 62.196,236.633 61.531 L 234.844 60.662 235.627 59.562 C 236.058 58.957,237.312 57.907,238.415 57.229 C 239.517 56.551,240.611 55.574,240.846 55.059 C 241.081 54.544,242.021 53.754,242.936 53.304 L 244.600 52.486 245.500 53.313 C 246.290 54.038,246.400 54.532,246.400 57.344 M207.777 75.227 C 214.896 75.768,220.018 76.790,223.258 78.316 C 225.625 79.431,229.427 80.373,234.200 81.026 C 237.516 81.479,242.206 83.128,244.323 84.584 C 245.420 85.339,247.461 86.245,248.859 86.598 C 254.150 87.932,255.377 88.471,257.251 90.283 C 258.509 91.500,260.142 92.499,262.348 93.402 C 266.486 95.096,268.223 96.178,269.048 97.573 C 269.509 98.354,270.341 98.887,271.831 99.357 C 274.322 100.142,275.461 101.047,283.200 108.384 C 286.390 111.408,289.582 114.404,290.293 115.041 C 291.796 116.388,293.163 118.247,294.565 120.848 C 295.614 122.795,297.674 124.800,298.626 124.800 C 299.229 124.800,300.885 127.175,301.389 128.763 C 301.557 129.293,302.620 130.643,303.752 131.763 C 305.848 133.839,307.082 136.635,307.826 141.000 C 308.023 142.156,308.569 143.052,309.795 144.230 C 310.730 145.127,311.718 146.565,311.997 147.430 C 313.136 150.970,314.581 153.904,316.051 155.660 C 318.516 158.605,319.152 160.872,320.411 171.200 C 320.666 173.290,321.320 176.392,321.865 178.093 C 322.999 181.633,323.819 187.714,324.444 197.200 C 325.145 207.841,324.649 212.561,321.819 222.200 C 321.302 223.960,320.577 227.470,320.209 230.000 C 318.809 239.614,318.082 242.026,315.625 245.200 C 315.029 245.970,314.131 248.040,313.628 249.800 C 312.602 253.391,311.858 254.846,309.668 257.541 C 308.646 258.798,307.800 260.532,307.054 262.898 C 305.859 266.691,304.696 268.415,302.803 269.199 C 302.036 269.516,301.497 270.087,301.339 270.751 C 300.873 272.698,299.913 274.139,297.783 276.085 C 296.617 277.151,295.216 278.783,294.669 279.712 C 294.123 280.640,293.254 281.778,292.738 282.241 C 292.222 282.703,289.460 285.561,286.600 288.593 C 283.740 291.625,280.888 294.423,280.261 294.812 C 279.635 295.200,277.906 296.692,276.419 298.126 C 274.614 299.866,273.160 300.900,272.049 301.232 C 270.892 301.579,270.134 302.136,269.564 303.059 C 268.388 304.961,267.084 305.750,262.905 307.085 C 259.974 308.021,258.776 308.648,257.105 310.118 C 255.470 311.558,254.159 312.255,251.229 313.242 C 249.003 313.993,246.710 315.088,245.629 315.917 C 242.226 318.530,241.450 318.718,226.164 320.645 C 225.084 320.782,222.049 321.508,219.419 322.259 C 208.586 325.356,186.713 325.057,179.200 321.710 C 178.210 321.269,175.330 320.605,172.800 320.234 C 159.823 318.331,158.184 317.891,155.890 315.694 C 154.877 314.724,152.968 313.861,148.000 312.127 C 147.010 311.781,145.390 310.737,144.400 309.805 C 142.848 308.346,142.088 307.983,138.888 307.178 C 134.364 306.039,132.502 305.043,131.226 303.078 C 130.675 302.230,129.806 301.471,129.226 301.333 C 127.368 300.889,125.911 299.947,123.641 297.723 C 122.408 296.515,120.862 295.247,120.205 294.904 C 118.396 293.961,115.600 291.529,114.991 290.367 C 114.042 288.560,111.744 285.959,105.652 279.800 C 100.737 274.831,99.627 273.491,99.191 272.000 C 98.808 270.690,98.228 269.873,97.059 269.000 C 95.813 268.069,95.088 266.992,93.831 264.200 C 92.939 262.220,92.081 260.543,91.923 260.473 C 91.570 260.316,89.090 256.890,88.412 255.622 C 88.140 255.113,87.420 252.310,86.813 249.393 C 86.003 245.501,85.438 243.731,84.694 242.745 C 83.269 240.858,81.377 235.217,80.386 229.905 C 79.924 227.427,79.306 224.860,79.012 224.200 C 74.320 213.634,74.049 186.981,78.544 178.111 C 79.259 176.700,79.827 174.441,80.388 170.781 C 81.503 163.506,83.660 156.752,85.166 155.821 C 85.554 155.581,86.085 153.920,87.602 148.200 C 88.502 144.805,89.749 142.312,91.203 141.000 C 91.691 140.560,92.875 138.638,93.834 136.729 C 95.070 134.270,96.107 132.816,97.390 131.744 C 98.385 130.912,99.203 129.954,99.207 129.615 C 99.220 128.377,101.046 125.829,102.800 124.602 C 103.954 123.794,104.923 122.667,105.500 121.462 C 106.712 118.933,118.669 106.987,121.391 105.586 C 122.601 104.964,123.824 103.897,124.599 102.790 C 125.784 101.096,127.051 100.222,129.800 99.201 C 130.460 98.956,131.470 98.078,132.045 97.249 C 132.620 96.421,133.790 95.425,134.645 95.036 C 138.782 93.155,140.642 92.141,141.117 91.507 C 142.484 89.680,145.154 88.429,150.437 87.136 C 154.772 86.075,156.092 85.580,157.321 84.555 C 159.016 83.143,162.790 81.822,166.943 81.189 C 172.398 80.358,175.442 79.563,177.656 78.392 C 182.838 75.654,195.658 74.306,207.777 75.227 M84.683 91.130 C 84.128 91.719,83.438 93.003,83.149 93.984 C 82.816 95.113,81.958 96.440,80.812 97.602 C 78.036 100.412,76.058 104.819,76.957 106.191 C 78.674 108.812,80.837 108.279,82.599 104.802 C 83.248 103.520,84.063 102.587,84.902 102.164 C 88.173 100.516,88.800 99.423,88.800 95.368 C 88.800 90.727,86.904 88.776,84.683 91.130 M74.176 115.809 C 74.028 116.244,73.364 117.770,72.699 119.200 C 71.044 122.761,70.698 124.984,71.664 125.858 C 72.375 126.502,72.367 126.582,71.400 128.312 C 69.819 131.140,69.913 136.775,71.569 138.431 C 74.300 141.162,75.085 139.514,74.483 132.315 C 74.219 129.163,74.187 126.932,74.403 126.798 C 75.413 126.174,76.111 117.651,75.261 116.309 C 74.520 115.139,74.419 115.092,74.176 115.809 M198.813 155.327 C 198.270 155.587,197.410 156.185,196.902 156.656 C 196.394 157.127,195.488 157.720,194.889 157.973 C 193.870 158.405,191.777 162.023,191.018 164.663 C 190.881 165.138,190.001 166.235,189.061 167.101 C 187.659 168.393,187.219 169.169,186.609 171.421 C 186.200 172.931,185.627 174.624,185.335 175.183 C 185.044 175.743,184.804 176.404,184.802 176.654 C 184.801 176.904,184.103 178.164,183.250 179.454 C 180.700 183.314,179.787 192.480,180.408 208.000 C 180.710 215.563,180.703 215.530,182.802 220.200 C 183.945 222.745,185.877 228.004,186.548 230.400 C 187.036 232.142,187.534 232.910,188.938 234.084 C 189.914 234.899,191.363 236.730,192.158 238.152 C 193.081 239.803,194.126 241.060,195.049 241.630 C 195.843 242.121,197.300 243.221,198.285 244.074 L 200.077 245.624 202.846 243.012 C 204.369 241.575,205.817 240.400,206.063 240.400 C 206.669 240.400,207.405 239.411,208.683 236.875 C 209.775 234.709,210.768 233.445,212.205 232.391 C 212.964 231.834,213.747 229.693,215.570 223.200 C 216.551 219.704,217.822 216.608,218.844 215.227 C 219.565 214.250,219.773 212.991,220.306 206.358 C 221.321 193.732,220.394 187.300,216.362 179.000 C 215.721 177.680,214.758 174.651,214.222 172.270 C 213.366 168.472,213.059 167.735,211.723 166.270 C 210.885 165.351,209.409 163.242,208.442 161.582 C 206.694 158.581,204.573 156.675,201.454 155.304 C 200.110 154.713,200.094 154.713,198.813 155.327 M54.400 213.000 L 54.400 219.200 60.600 219.200 L 66.800 219.200 66.800 216.091 L 66.800 212.981 63.691 209.891 L 60.582 206.800 57.491 206.800 L 54.400 206.800 54.400 213.000 M204.867 218.418 C 206.606 219.265,206.698 219.385,206.204 220.164 C 205.912 220.624,205.462 222.047,205.203 223.327 C 204.002 229.265,197.701 229.488,196.037 223.651 C 195.763 222.689,195.102 221.466,194.569 220.933 C 192.906 219.269,194.036 216.586,195.912 217.745 C 196.108 217.867,196.793 217.798,197.434 217.594 C 199.237 217.018,202.803 217.413,204.867 218.418 M52.400 219.946 C 52.400 221.031,54.134 222.400,55.507 222.400 L 56.957 222.400 55.600 221.000 C 54.360 219.721,52.400 219.075,52.400 219.946 M92.867 282.133 C 93.234 282.411,93.665 283.351,93.827 284.220 C 94.175 286.101,96.625 288.779,98.053 288.841 C 98.574 288.863,97.470 289.215,95.600 289.622 C 92.234 290.355,91.191 290.344,87.500 289.536 L 85.600 289.120 85.600 285.784 L 85.600 282.447 87.300 282.066 C 89.746 281.519,92.096 281.547,92.867 282.133 " stroke="none" fill="#041544" fill-rule="evenodd"></path><path id="path2" d="M0.000 153.000 L 0.000 306.000 8.700 306.009 C 18.122 306.018,24.583 305.164,31.728 302.963 C 36.422 301.518,46.604 301.537,50.962 303.000 C 61.153 306.421,67.182 301.827,64.598 292.609 C 63.748 289.579,63.910 280.316,64.856 277.762 C 65.552 275.885,65.343 275.046,63.794 273.500 C 62.514 272.224,61.787 272.055,62.386 273.174 C 63.121 274.547,62.832 274.877,61.638 274.027 C 60.999 273.572,60.234 273.198,59.938 273.196 C 59.071 273.190,55.449 271.387,54.851 270.664 C 54.549 270.299,53.942 270.000,53.502 270.000 C 52.885 270.000,52.802 269.879,53.140 269.472 C 53.482 269.061,53.229 268.790,51.997 268.247 C 48.769 266.823,47.963 265.211,48.089 260.442 C 48.234 254.992,48.330 254.911,55.576 254.099 C 64.409 253.109,65.200 253.567,65.200 259.674 C 65.200 262.988,65.356 264.069,66.036 265.474 L 66.871 267.200 70.153 267.200 L 73.434 267.200 73.888 265.500 C 74.479 263.292,73.836 260.636,72.572 260.060 C 71.062 259.372,67.214 253.271,67.204 251.549 C 67.202 251.191,66.931 250.675,66.603 250.402 C 65.209 249.246,64.000 240.757,64.000 232.130 L 64.000 225.600 65.600 225.600 L 67.200 225.600 67.205 220.900 C 67.208 218.315,67.323 209.266,67.461 200.791 C 67.598 192.315,67.582 184.000,67.423 182.311 L 67.136 179.242 65.368 180.101 L 63.600 180.959 63.600 192.523 L 63.600 204.087 62.631 203.844 C 61.794 203.633,61.599 203.791,61.200 205.000 L 60.738 206.400 57.579 206.400 L 54.420 206.400 54.299 199.900 L 54.179 193.400 54.089 199.900 L 54.000 206.400 53.059 206.400 C 51.641 206.400,51.200 202.753,51.200 191.014 L 51.200 181.182 49.596 177.991 L 47.991 174.800 49.596 174.800 L 51.200 174.800 51.200 171.600 L 51.200 168.400 49.593 168.400 L 47.986 168.400 48.093 158.716 L 48.200 149.031 49.542 148.127 C 50.281 147.629,52.366 146.771,54.175 146.219 C 55.985 145.667,58.134 144.762,58.951 144.208 C 60.230 143.340,60.877 143.200,63.618 143.200 L 66.800 143.200 66.800 144.800 L 66.800 146.400 70.129 146.400 L 73.458 146.400 74.329 144.656 C 74.808 143.697,75.200 142.785,75.200 142.630 C 75.200 142.475,75.577 141.473,76.037 140.403 L 76.874 138.457 78.107 139.206 L 79.339 139.956 80.103 137.678 C 80.523 136.425,81.182 135.040,81.568 134.600 C 82.788 133.208,84.837 129.184,84.557 128.730 C 83.959 127.764,87.857 124.910,90.170 124.621 C 92.156 124.373,92.370 124.247,92.601 123.198 C 92.941 121.648,94.994 118.877,96.213 118.321 C 96.923 117.998,97.200 117.555,97.200 116.744 C 97.200 112.213,99.574 108.637,102.633 108.561 C 109.440 108.393,110.556 99.992,103.900 99.027 L 102.000 98.751 102.000 95.145 C 102.000 90.627,103.001 89.200,106.169 89.200 L 108.000 89.200 108.000 90.800 C 108.000 92.133,108.267 92.667,109.600 94.000 L 111.200 95.600 114.557 95.600 C 117.175 95.600,117.965 95.468,118.145 94.999 C 118.272 94.668,119.221 93.862,120.253 93.207 L 122.131 92.016 120.072 89.958 L 118.014 87.900 115.707 88.148 C 114.438 88.284,112.275 88.511,110.900 88.652 L 108.400 88.910 108.400 87.417 C 108.400 85.502,107.308 83.981,104.843 82.465 C 102.494 81.019,98.348 73.941,99.182 72.800 C 99.423 72.470,100.077 71.210,100.634 70.000 C 102.120 66.776,102.161 66.713,103.387 65.820 C 104.200 65.228,104.561 65.139,104.689 65.500 C 104.813 65.848,105.929 66.000,108.371 66.000 C 112.276 66.000,112.883 66.328,113.389 68.710 C 114.211 72.575,116.454 73.601,124.080 73.597 L 130.200 73.595 131.187 72.146 C 131.730 71.349,132.576 69.505,133.068 68.048 L 133.963 65.400 132.981 65.273 C 131.366 65.065,133.310 59.496,135.462 58.163 C 136.088 57.776,137.354 56.744,138.275 55.871 L 139.950 54.283 138.375 51.150 L 136.800 48.018 136.800 41.400 L 136.800 34.782 138.400 31.600 C 139.844 28.728,140.000 28.124,140.000 25.400 C 140.000 22.676,140.156 22.072,141.600 19.200 L 143.200 16.018 143.200 8.009 L 143.200 0.000 71.600 0.000 L 0.000 0.000 0.000 153.000 M242.936 53.304 C 242.021 53.754,241.081 54.544,240.846 55.059 C 240.611 55.574,239.517 56.551,238.415 57.229 C 237.312 57.907,236.058 58.957,235.627 59.562 L 234.844 60.662 236.633 61.531 C 239.281 62.818,244.298 62.786,245.530 61.474 C 246.839 60.081,246.818 54.524,245.500 53.313 L 244.600 52.486 242.936 53.304 M87.900 91.116 C 88.726 91.645,88.800 91.993,88.800 95.368 C 88.800 99.423,88.173 100.516,84.902 102.164 C 84.063 102.587,83.248 103.520,82.599 104.802 C 80.837 108.279,78.674 108.812,76.957 106.191 C 76.058 104.819,78.036 100.412,80.812 97.602 C 81.958 96.440,82.816 95.113,83.149 93.984 C 84.148 90.589,85.655 89.680,87.900 91.116 M75.423 122.087 C 75.062 124.554,74.603 126.674,74.403 126.798 C 74.187 126.932,74.219 129.163,74.483 132.315 C 75.085 139.514,74.300 141.162,71.569 138.431 C 69.913 136.775,69.819 131.140,71.400 128.312 C 72.367 126.582,72.375 126.502,71.664 125.858 C 70.698 124.984,71.044 122.761,72.699 119.200 C 73.364 117.770,74.028 116.244,74.176 115.809 C 74.419 115.092,74.520 115.139,75.261 116.309 C 76.064 117.577,76.067 117.679,75.423 122.087 M63.691 209.891 L 66.800 212.981 66.800 216.091 L 66.800 219.200 60.600 219.200 L 54.400 219.200 54.400 213.000 L 54.400 206.800 57.491 206.800 L 60.582 206.800 63.691 209.891 M197.434 217.594 C 196.793 217.798,196.108 217.867,195.912 217.745 C 194.036 216.586,192.906 219.269,194.569 220.933 C 195.102 221.466,195.763 222.689,196.037 223.651 C 197.701 229.488,204.002 229.265,205.203 223.327 C 205.462 222.047,205.912 220.624,206.204 220.164 C 207.269 218.485,200.684 216.555,197.434 217.594 M55.600 221.000 L 56.957 222.400 55.507 222.400 C 54.134 222.400,52.400 221.031,52.400 219.946 C 52.400 219.075,54.360 219.721,55.600 221.000 M87.300 282.066 L 85.600 282.447 85.600 285.784 L 85.600 289.120 87.500 289.536 C 91.191 290.344,92.234 290.355,95.600 289.622 C 97.470 289.215,98.574 288.863,98.053 288.841 C 96.625 288.779,94.175 286.101,93.827 284.220 C 93.351 281.657,91.645 281.093,87.300 282.066 " stroke="none" fill="#041b54" fill-rule="evenodd"></path><path id="path3" d="M190.000 81.254 C 178.574 82.371,169.576 84.113,164.315 86.228 C 161.959 87.175,158.699 88.323,157.072 88.780 C 153.036 89.912,149.240 91.495,147.944 92.586 C 147.351 93.085,144.980 94.416,142.675 95.545 C 140.370 96.673,137.430 98.385,136.142 99.348 C 134.854 100.311,132.810 101.592,131.600 102.194 C 130.390 102.796,128.191 104.483,126.714 105.944 C 125.236 107.405,122.462 109.950,120.547 111.600 C 118.633 113.250,116.332 115.399,115.434 116.375 C 114.535 117.351,112.983 118.971,111.984 119.975 C 110.984 120.979,109.334 122.893,108.315 124.228 C 107.297 125.564,105.849 127.126,105.097 127.699 C 104.322 128.290,103.068 130.000,102.205 131.644 C 101.366 133.239,99.690 135.998,98.480 137.773 C 97.270 139.548,95.769 142.139,95.143 143.530 C 94.518 144.922,93.469 146.812,92.812 147.730 C 91.164 150.034,89.795 153.580,88.599 158.642 C 88.042 161.001,86.974 164.296,86.227 165.965 C 82.288 174.759,80.166 197.791,82.003 211.800 C 82.465 215.320,83.024 219.820,83.247 221.800 C 83.799 226.719,85.004 231.264,86.421 233.776 C 87.748 236.126,88.532 238.555,89.205 242.400 C 89.865 246.173,91.484 250.746,92.648 252.130 C 93.204 252.790,94.536 255.079,95.608 257.216 C 96.680 259.353,98.355 262.248,99.330 263.651 C 100.305 265.053,101.589 267.190,102.183 268.400 C 102.778 269.610,104.375 271.755,105.732 273.166 C 112.476 280.177,114.703 282.529,118.214 286.343 C 120.312 288.621,123.057 291.252,124.314 292.189 C 125.571 293.126,127.140 294.473,127.800 295.184 C 128.460 295.894,130.028 296.998,131.284 297.636 C 132.540 298.273,134.437 299.561,135.498 300.498 C 136.559 301.434,138.501 302.682,139.814 303.270 C 141.126 303.859,143.370 304.866,144.800 305.508 C 146.230 306.150,148.511 307.397,149.870 308.278 C 151.413 309.279,154.115 310.444,157.070 311.381 C 159.671 312.206,163.190 313.500,164.889 314.258 C 174.041 318.338,200.453 320.404,216.200 318.272 C 218.620 317.944,222.236 317.479,224.236 317.239 C 228.942 316.674,234.003 315.321,239.000 313.292 C 241.200 312.399,244.769 311.027,246.931 310.243 C 249.092 309.460,251.564 308.262,252.422 307.582 C 253.281 306.902,255.631 305.641,257.645 304.781 C 259.659 303.920,262.227 302.527,263.353 301.685 C 264.479 300.843,266.570 299.463,268.000 298.619 C 269.430 297.774,271.410 296.327,272.400 295.403 C 273.390 294.479,275.325 292.875,276.700 291.838 C 278.075 290.801,279.200 289.764,279.200 289.533 C 279.200 289.302,280.685 287.646,282.500 285.854 C 284.315 284.061,286.178 282.146,286.640 281.597 C 287.102 281.049,288.317 279.916,289.340 279.080 C 290.363 278.244,291.471 277.036,291.803 276.395 C 292.134 275.753,293.372 274.270,294.554 273.098 C 295.735 271.926,297.193 269.984,297.792 268.783 C 298.391 267.582,299.649 265.610,300.586 264.400 C 302.450 261.994,303.962 259.202,305.215 255.851 C 305.661 254.659,306.586 252.911,307.270 251.967 C 307.999 250.960,309.316 247.881,310.453 244.523 C 311.520 241.373,313.029 237.532,313.806 235.987 C 320.116 223.459,319.820 174.060,313.362 161.579 C 312.614 160.134,311.711 157.973,311.356 156.777 C 310.724 154.649,308.943 150.997,306.978 147.800 C 306.437 146.920,305.702 145.210,305.346 144.000 C 304.405 140.809,302.760 137.754,300.423 134.855 C 299.294 133.455,298.032 131.655,297.619 130.855 C 297.206 130.055,296.119 128.680,295.203 127.800 C 294.288 126.920,292.891 125.300,292.101 124.200 C 289.999 121.276,285.440 116.518,279.200 110.733 C 273.239 105.207,271.348 103.706,268.317 102.092 C 266.621 101.190,264.270 99.724,263.093 98.835 C 261.915 97.946,259.422 96.512,257.553 95.648 C 255.683 94.784,253.624 93.634,252.977 93.093 C 251.118 91.536,247.923 90.080,243.907 88.959 C 239.596 87.755,236.876 86.789,234.507 85.622 C 231.059 83.924,218.390 81.727,206.820 80.821 C 200.161 80.300,199.607 80.314,190.000 81.254 M208.800 82.606 C 221.961 83.250,231.960 84.822,234.045 86.576 C 235.211 87.558,239.877 89.247,243.010 89.822 C 245.262 90.235,248.164 91.604,251.314 93.738 C 252.807 94.749,254.786 95.781,255.712 96.030 C 258.215 96.704,260.372 97.909,262.509 99.825 C 263.558 100.767,265.942 102.317,267.807 103.269 C 269.671 104.221,271.197 105.190,271.198 105.422 C 271.201 106.130,273.713 108.323,275.260 108.968 C 276.063 109.303,277.143 110.147,277.660 110.844 C 279.118 112.808,281.579 115.200,282.142 115.200 C 282.858 115.200,284.598 117.104,285.682 119.074 C 286.187 119.991,287.410 121.346,288.400 122.085 C 289.441 122.862,290.675 124.309,291.327 125.517 C 291.947 126.666,293.169 128.180,294.044 128.883 C 294.918 129.586,295.960 130.898,296.359 131.800 C 297.344 134.027,300.317 138.327,301.197 138.798 C 302.368 139.425,303.866 142.428,304.321 145.064 C 304.829 147.998,306.051 150.553,307.356 151.408 C 310.090 153.199,310.979 163.051,309.017 169.802 C 308.271 172.366,307.402 172.214,306.187 169.308 C 305.887 168.589,305.442 168.000,305.198 168.000 C 304.153 168.000,303.068 164.249,302.885 160.000 C 302.683 155.326,302.542 154.991,300.637 154.633 C 298.783 154.285,297.658 153.183,296.856 150.928 C 296.270 149.279,295.869 148.837,294.085 147.874 C 292.052 146.777,291.729 146.453,289.885 143.657 C 289.242 142.683,288.398 142.106,286.800 141.553 C 283.197 140.306,281.506 139.356,279.476 137.436 C 277.428 135.501,276.219 135.039,272.000 134.582 C 268.913 134.247,264.568 132.885,260.873 131.095 L 258.200 129.800 249.767 129.800 C 241.953 129.800,241.189 129.864,239.367 130.676 C 238.285 131.158,234.880 132.031,231.800 132.615 C 221.095 134.646,217.792 135.794,216.314 138.000 C 214.804 140.253,206.314 144.240,201.846 144.794 C 198.672 145.188,196.867 146.231,195.669 148.364 C 195.056 149.453,194.102 150.324,192.690 151.083 C 190.933 152.028,190.377 152.632,189.087 155.000 C 188.248 156.540,187.384 157.862,187.166 157.938 C 185.097 158.661,183.337 161.648,182.195 166.376 C 181.605 168.821,181.199 169.625,179.925 170.873 C 177.649 173.104,176.344 176.578,175.820 181.800 C 175.032 189.660,174.670 191.966,174.001 193.400 C 171.185 199.440,171.358 209.628,174.357 214.400 C 174.718 214.974,175.081 216.990,176.016 223.600 C 176.723 228.597,177.684 230.542,180.048 231.764 C 180.701 232.102,181.153 233.234,182.059 236.800 C 183.257 241.519,184.275 243.200,185.933 243.200 C 187.363 243.200,188.286 244.314,188.558 246.368 C 188.822 248.359,190.351 250.799,191.336 250.801 C 191.591 250.801,192.070 251.222,192.400 251.736 C 192.730 252.250,193.420 253.325,193.934 254.126 C 196.493 258.114,205.383 256.698,206.233 252.167 C 206.435 251.090,206.697 250.833,207.809 250.625 C 209.723 250.266,211.484 248.447,212.082 246.211 C 212.490 244.683,212.857 244.183,213.994 243.603 C 216.218 242.468,219.200 236.668,219.200 233.478 C 219.200 233.212,220.145 232.545,221.300 231.997 C 224.208 230.616,225.200 227.558,225.200 219.971 C 225.200 217.666,225.311 217.200,225.858 217.200 C 228.389 217.200,231.011 213.978,231.556 210.200 C 231.747 208.880,231.924 208.211,231.951 208.713 C 231.978 209.214,232.259 209.724,232.576 209.846 C 232.892 209.967,233.265 210.584,233.403 211.215 C 233.542 211.847,233.962 212.461,234.336 212.580 C 234.711 212.699,235.598 213.327,236.309 213.975 C 237.019 214.624,237.600 215.053,237.600 214.928 C 237.600 214.804,237.842 214.903,238.137 215.148 C 238.432 215.393,238.788 215.479,238.927 215.340 C 239.067 215.200,239.479 215.334,239.845 215.637 C 240.210 215.940,240.709 216.201,240.954 216.217 C 241.543 216.255,242.659 216.696,244.538 217.633 C 245.384 218.055,246.419 218.400,246.838 218.400 C 247.257 218.400,247.600 218.580,247.600 218.800 C 247.600 219.033,248.933 219.200,250.800 219.200 C 253.246 219.200,254.000 219.071,254.000 218.651 C 254.000 218.279,255.131 217.882,257.500 217.420 C 259.425 217.045,261.755 216.572,262.677 216.369 C 264.653 215.934,294.939 215.942,296.400 216.378 C 297.384 216.671,298.945 216.095,300.458 214.881 C 301.004 214.442,301.495 214.452,303.359 214.939 C 305.576 215.518,307.200 215.439,307.200 214.753 C 307.200 214.559,307.470 214.400,307.800 214.400 C 308.130 214.400,308.401 214.265,308.403 214.100 C 308.461 208.715,309.910 203.705,312.039 201.529 C 314.239 199.280,314.800 192.156,313.214 186.600 C 313.026 185.940,312.865 185.130,312.856 184.800 C 312.823 183.564,312.589 182.592,312.268 182.357 C 312.086 182.223,311.906 181.233,311.868 180.157 C 311.831 179.081,311.620 178.068,311.400 177.906 C 311.143 177.717,311.159 177.610,311.445 177.606 C 311.692 177.603,311.811 177.191,311.712 176.676 C 311.512 175.628,312.117 174.987,313.672 174.596 L 314.740 174.328 314.992 189.464 C 315.131 197.789,315.279 206.670,315.322 209.200 C 315.365 211.730,315.247 216.621,315.059 220.068 L 314.719 226.337 313.544 226.823 C 311.475 227.680,310.855 229.853,308.590 244.200 C 308.473 244.942,307.878 245.817,307.033 246.491 C 305.591 247.641,303.540 252.178,303.005 255.400 C 302.627 257.680,301.984 259.200,301.399 259.200 C 299.855 259.200,297.302 263.692,296.018 268.666 C 295.671 270.010,295.252 270.528,293.844 271.353 C 292.546 272.114,291.801 272.965,290.927 274.687 C 290.017 276.481,289.400 277.166,288.177 277.742 C 286.009 278.761,285.244 279.509,284.252 281.576 C 283.595 282.945,282.942 283.587,281.400 284.376 C 279.821 285.185,279.187 285.821,278.386 287.400 C 277.618 288.913,276.767 289.800,274.890 291.040 C 272.561 292.580,270.811 294.298,270.791 295.063 C 270.787 295.248,268.852 296.299,266.491 297.398 C 264.131 298.497,261.444 300.087,260.519 300.931 C 259.485 301.876,257.684 302.897,255.837 303.586 C 253.072 304.618,248.800 307.273,248.800 307.960 C 248.800 308.297,244.469 309.826,242.400 310.219 C 238.446 310.970,233.503 312.625,231.600 313.833 C 227.241 316.602,205.917 318.346,189.600 317.268 C 175.698 316.350,171.546 315.591,168.114 313.342 C 166.499 312.284,164.963 311.751,161.314 310.981 C 156.465 309.958,151.316 308.473,151.114 308.039 C 150.727 307.207,147.105 304.921,144.296 303.734 C 142.483 302.969,140.786 302.250,140.524 302.138 C 140.262 302.025,139.778 301.521,139.449 301.019 C 138.571 299.679,134.516 297.036,132.115 296.238 C 130.397 295.668,129.869 295.256,129.115 293.903 C 128.407 292.631,127.571 291.931,125.419 290.805 C 123.158 289.623,122.578 289.120,122.318 288.116 C 121.984 286.825,119.571 284.400,118.622 284.400 C 118.009 284.400,116.000 282.183,116.000 281.507 C 116.000 280.637,113.911 278.371,112.396 277.598 C 111.242 277.009,110.621 276.311,109.998 274.902 C 109.011 272.669,107.485 270.958,106.191 270.633 C 105.492 270.458,104.769 269.361,103.202 266.101 C 101.793 263.170,100.578 261.260,99.386 260.104 C 98.146 258.901,97.567 257.971,97.395 256.904 C 96.647 252.269,94.609 247.768,92.919 247.018 C 91.924 246.576,91.543 245.283,90.617 239.200 C 89.929 234.685,88.734 231.671,86.822 229.623 C 85.391 228.092,84.915 225.957,84.630 219.800 C 84.508 217.160,84.132 211.760,83.793 207.800 C 83.292 201.936,83.253 199.004,83.585 192.000 C 84.433 174.091,84.759 171.858,86.995 168.592 C 88.792 165.970,89.516 163.846,90.227 159.120 C 90.870 154.847,91.637 152.901,93.975 149.600 C 94.833 148.390,95.644 146.988,95.779 146.484 C 96.555 143.576,97.893 140.897,99.436 139.160 C 100.400 138.074,102.011 135.497,103.015 133.432 C 104.419 130.546,105.187 129.450,106.339 128.688 C 107.289 128.059,108.318 126.795,109.150 125.233 C 110.026 123.590,110.975 122.447,112.003 121.798 C 112.850 121.263,113.871 120.338,114.272 119.742 C 115.210 118.345,118.345 115.210,119.742 114.272 C 120.338 113.871,121.247 112.881,121.761 112.072 C 122.276 111.262,123.798 109.892,125.144 109.026 C 126.490 108.161,128.032 106.787,128.571 105.973 C 129.299 104.872,130.402 104.080,132.879 102.882 C 134.710 101.995,137.016 100.561,138.004 99.694 C 140.130 97.828,141.664 96.996,144.960 95.922 C 146.302 95.485,148.301 94.451,149.402 93.625 C 152.165 91.551,153.412 90.959,157.051 89.999 C 161.276 88.883,165.335 87.324,166.596 86.332 C 168.143 85.115,175.960 83.669,183.600 83.186 C 187.230 82.957,192.270 82.622,194.800 82.442 C 197.330 82.261,200.480 82.174,201.800 82.248 C 203.120 82.321,206.270 82.483,208.800 82.606 M204.087 149.723 C 205.249 150.464,206.962 151.551,207.894 152.137 C 208.982 152.822,209.938 153.883,210.565 155.102 C 211.102 156.146,212.350 157.833,213.338 158.851 C 215.439 161.017,216.262 162.528,217.956 167.334 C 218.641 169.278,219.854 171.978,220.652 173.334 C 224.448 179.786,226.550 196.368,225.168 208.965 C 224.448 215.539,221.411 226.128,219.997 227.002 C 219.431 227.352,217.551 231.187,216.234 234.676 C 215.637 236.258,214.621 238.238,213.977 239.076 C 213.333 239.914,211.802 241.992,210.575 243.693 C 209.348 245.394,207.771 247.192,207.072 247.689 C 206.372 248.186,204.573 249.717,203.073 251.092 L 200.345 253.592 199.073 252.936 C 196.850 251.790,191.777 246.900,190.763 244.926 C 190.233 243.896,188.777 242.021,187.527 240.759 C 185.048 238.257,184.425 237.236,182.936 233.246 C 182.394 231.791,181.254 229.430,180.405 228.000 C 176.502 221.431,175.072 206.427,176.764 189.800 C 177.940 178.244,178.198 177.177,180.800 173.151 C 181.654 171.830,182.658 169.816,183.032 168.675 C 183.986 165.761,185.790 162.269,187.142 160.717 C 187.774 159.993,189.117 158.106,190.127 156.524 C 191.523 154.338,192.521 153.293,194.282 152.171 C 195.557 151.359,197.296 150.071,198.146 149.307 C 200.003 147.640,200.924 147.704,204.087 149.723 M179.384 256.983 C 176.171 257.943,175.953 258.374,178.676 258.388 C 181.195 258.400,181.899 258.045,181.322 257.053 C 181.057 256.598,180.714 256.586,179.384 256.983 M170.800 258.797 C 169.590 258.950,166.980 259.289,165.000 259.549 C 163.020 259.810,158.250 260.104,154.400 260.203 C 150.550 260.303,146.365 260.432,145.100 260.492 C 143.836 260.551,142.801 260.488,142.800 260.351 C 142.800 260.136,139.357 260.188,138.800 260.411 C 138.690 260.455,137.790 260.527,136.800 260.571 C 131.812 260.794,130.048 261.248,129.245 262.517 C 127.727 264.914,128.119 264.991,142.171 265.069 C 156.274 265.147,173.627 265.569,174.073 265.845 C 174.615 266.180,177.633 263.899,177.524 263.237 C 177.467 262.887,177.562 262.374,177.735 262.097 C 177.927 261.791,177.816 261.504,177.451 261.364 C 177.121 261.237,176.942 260.896,177.053 260.605 C 177.184 260.265,176.818 259.980,176.028 259.806 C 175.353 259.658,174.800 259.281,174.800 258.968 C 174.800 258.360,174.381 258.342,170.800 258.797 " stroke="none" fill="#c4642c" fill-rule="evenodd"></path><path id="path4" d="M190.400 75.448 C 183.183 76.421,179.990 77.159,177.656 78.392 C 175.442 79.563,172.398 80.358,166.943 81.189 C 162.790 81.822,159.016 83.143,157.321 84.555 C 156.092 85.580,154.772 86.075,150.437 87.136 C 145.154 88.429,142.484 89.680,141.117 91.507 C 140.642 92.141,138.782 93.155,134.645 95.036 C 133.790 95.425,132.620 96.421,132.045 97.249 C 131.470 98.078,130.460 98.956,129.800 99.201 C 127.051 100.222,125.784 101.096,124.599 102.790 C 123.824 103.897,122.601 104.964,121.391 105.586 C 118.669 106.987,106.712 118.933,105.500 121.462 C 104.923 122.667,103.954 123.794,102.800 124.602 C 101.046 125.829,99.220 128.377,99.207 129.615 C 99.203 129.954,98.385 130.912,97.390 131.744 C 96.107 132.816,95.070 134.270,93.834 136.729 C 92.875 138.638,91.691 140.560,91.203 141.000 C 89.749 142.312,88.502 144.805,87.602 148.200 C 86.085 153.920,85.554 155.581,85.166 155.821 C 83.660 156.752,81.503 163.506,80.388 170.781 C 79.827 174.441,79.259 176.700,78.544 178.111 C 74.049 186.981,74.320 213.634,79.012 224.200 C 79.306 224.860,79.924 227.427,80.386 229.905 C 81.377 235.217,83.269 240.858,84.694 242.745 C 85.438 243.731,86.003 245.501,86.813 249.393 C 87.420 252.310,88.140 255.113,88.412 255.622 C 89.090 256.890,91.570 260.316,91.923 260.473 C 92.081 260.543,92.939 262.220,93.831 264.200 C 95.088 266.992,95.813 268.069,97.059 269.000 C 98.228 269.873,98.808 270.690,99.191 272.000 C 99.627 273.491,100.737 274.831,105.652 279.800 C 111.744 285.959,114.042 288.560,114.991 290.367 C 115.600 291.529,118.396 293.961,120.205 294.904 C 120.862 295.247,122.408 296.515,123.641 297.723 C 125.911 299.947,127.368 300.889,129.226 301.333 C 129.806 301.471,130.675 302.230,131.226 303.078 C 132.501 305.043,134.363 306.039,138.888 307.179 C 141.812 307.915,142.897 308.395,144.000 309.436 C 145.369 310.730,149.810 312.976,153.000 313.987 C 153.880 314.267,155.140 315.004,155.800 315.627 C 158.213 317.903,159.752 318.321,172.800 320.234 C 175.330 320.605,178.210 321.269,179.200 321.710 C 186.713 325.057,208.586 325.356,219.419 322.259 C 222.049 321.508,225.084 320.782,226.164 320.645 C 241.450 318.718,242.226 318.530,245.629 315.917 C 246.710 315.088,249.003 313.993,251.229 313.242 C 254.159 312.255,255.470 311.558,257.105 310.118 C 258.776 308.648,259.974 308.021,262.905 307.085 C 267.084 305.750,268.388 304.961,269.564 303.059 C 270.134 302.136,270.892 301.579,272.049 301.232 C 273.160 300.900,274.614 299.866,276.419 298.126 C 277.906 296.692,279.635 295.200,280.261 294.812 C 280.888 294.423,283.740 291.625,286.600 288.593 C 289.460 285.561,292.222 282.703,292.738 282.241 C 293.254 281.778,294.123 280.640,294.669 279.712 C 295.216 278.783,296.617 277.151,297.783 276.085 C 299.913 274.139,300.873 272.698,301.339 270.751 C 301.497 270.087,302.036 269.516,302.803 269.199 C 304.696 268.415,305.859 266.691,307.054 262.898 C 307.800 260.532,308.646 258.798,309.668 257.541 C 311.858 254.846,312.602 253.391,313.628 249.800 C 314.131 248.040,315.029 245.970,315.625 245.200 C 318.082 242.026,318.809 239.614,320.209 230.000 C 320.577 227.470,321.302 223.960,321.819 222.200 C 324.649 212.561,325.145 207.841,324.444 197.200 C 323.819 187.714,322.999 181.633,321.865 178.093 C 321.320 176.392,320.666 173.290,320.411 171.200 C 319.148 160.842,318.519 158.608,316.021 155.625 C 315.133 154.564,313.806 152.171,313.007 150.189 C 311.613 146.732,310.110 144.292,308.772 143.315 C 308.406 143.048,307.986 142.058,307.838 141.115 C 307.165 136.814,305.877 133.867,303.752 131.763 C 302.620 130.643,301.557 129.293,301.389 128.763 C 300.885 127.175,299.229 124.800,298.626 124.800 C 297.674 124.800,295.614 122.795,294.565 120.848 C 293.163 118.247,291.796 116.388,290.293 115.041 C 289.582 114.404,286.390 111.408,283.200 108.384 C 275.461 101.047,274.322 100.142,271.831 99.357 C 270.341 98.887,269.509 98.354,269.048 97.573 C 268.223 96.178,266.486 95.096,262.348 93.402 C 260.142 92.499,258.509 91.500,257.251 90.283 C 255.377 88.471,254.150 87.932,248.859 86.598 C 247.461 86.245,245.420 85.339,244.323 84.584 C 242.206 83.128,237.516 81.479,234.200 81.026 C 229.427 80.373,225.625 79.431,223.258 78.316 C 217.064 75.399,201.103 74.006,190.400 75.448 M206.820 80.821 C 218.390 81.727,231.059 83.924,234.507 85.622 C 236.876 86.789,239.596 87.755,243.907 88.959 C 247.923 90.080,251.118 91.536,252.977 93.093 C 253.624 93.634,255.683 94.784,257.553 95.648 C 259.422 96.512,261.915 97.946,263.093 98.835 C 264.270 99.724,266.621 101.190,268.317 102.092 C 271.348 103.706,273.239 105.207,279.200 110.733 C 285.440 116.518,289.999 121.276,292.101 124.200 C 292.891 125.300,294.288 126.920,295.203 127.800 C 296.119 128.680,297.206 130.055,297.619 130.855 C 298.032 131.655,299.294 133.455,300.423 134.855 C 302.760 137.754,304.405 140.809,305.346 144.000 C 305.702 145.210,306.437 146.920,306.978 147.800 C 308.943 150.997,310.724 154.649,311.356 156.777 C 311.711 157.973,312.614 160.134,313.362 161.579 C 316.049 166.772,316.962 172.319,317.808 188.599 C 319.063 212.742,317.764 228.129,313.806 235.987 C 313.029 237.532,311.520 241.373,310.453 244.523 C 309.316 247.881,307.999 250.960,307.270 251.967 C 306.586 252.911,305.661 254.659,305.215 255.851 C 303.962 259.202,302.450 261.994,300.586 264.400 C 299.649 265.610,298.391 267.582,297.792 268.783 C 297.193 269.984,295.735 271.926,294.554 273.098 C 293.372 274.270,292.134 275.753,291.803 276.395 C 291.471 277.036,290.363 278.244,289.340 279.080 C 288.317 279.916,287.102 281.049,286.640 281.597 C 286.178 282.146,284.315 284.061,282.500 285.854 C 280.685 287.646,279.200 289.302,279.200 289.533 C 279.200 289.764,278.075 290.801,276.700 291.838 C 275.325 292.875,273.390 294.479,272.400 295.403 C 271.410 296.327,269.430 297.774,268.000 298.619 C 266.570 299.463,264.479 300.843,263.353 301.685 C 262.227 302.527,259.659 303.920,257.645 304.781 C 255.631 305.641,253.281 306.902,252.422 307.582 C 251.564 308.262,249.092 309.460,246.931 310.243 C 244.769 311.027,241.200 312.399,239.000 313.292 C 234.003 315.321,228.942 316.674,224.236 317.239 C 222.236 317.479,218.620 317.944,216.200 318.272 C 200.453 320.404,174.041 318.338,164.889 314.258 C 163.190 313.500,159.671 312.206,157.070 311.381 C 154.115 310.444,151.413 309.279,149.870 308.278 C 148.511 307.397,146.230 306.150,144.800 305.508 C 143.370 304.866,141.126 303.859,139.814 303.270 C 138.501 302.682,136.559 301.434,135.498 300.498 C 134.437 299.561,132.540 298.273,131.284 297.636 C 130.028 296.998,128.460 295.894,127.800 295.184 C 127.140 294.473,125.571 293.126,124.314 292.189 C 123.057 291.252,120.312 288.621,118.214 286.343 C 114.703 282.529,112.476 280.177,105.732 273.166 C 104.375 271.755,102.778 269.610,102.183 268.400 C 101.589 267.190,100.305 265.053,99.330 263.651 C 98.355 262.248,96.680 259.353,95.608 257.216 C 94.536 255.079,93.204 252.790,92.648 252.130 C 91.484 250.746,89.865 246.173,89.205 242.400 C 88.532 238.555,87.748 236.126,86.421 233.776 C 85.004 231.264,83.799 226.719,83.247 221.800 C 83.024 219.820,82.465 215.320,82.003 211.800 C 80.984 204.031,80.924 198.631,81.762 190.200 C 83.207 175.666,84.133 170.641,86.227 165.965 C 86.974 164.296,88.042 161.001,88.599 158.642 C 89.795 153.580,91.164 150.034,92.812 147.730 C 93.469 146.812,94.518 144.922,95.143 143.530 C 95.769 142.139,97.270 139.548,98.480 137.773 C 99.690 135.998,101.366 133.239,102.205 131.644 C 103.068 130.000,104.322 128.290,105.097 127.699 C 105.849 127.126,107.297 125.564,108.315 124.228 C 109.334 122.893,110.984 120.979,111.984 119.975 C 112.983 118.971,114.535 117.351,115.434 116.375 C 116.332 115.399,118.633 113.250,120.547 111.600 C 122.462 109.950,125.236 107.405,126.714 105.944 C 128.191 104.483,130.390 102.796,131.600 102.194 C 132.810 101.592,134.854 100.311,136.142 99.348 C 137.430 98.385,140.370 96.673,142.675 95.545 C 144.980 94.416,147.351 93.085,147.944 92.586 C 149.240 91.495,153.036 89.912,157.072 88.780 C 158.699 88.323,161.959 87.175,164.315 86.228 C 173.403 82.575,194.669 79.870,206.820 80.821 M198.146 149.307 C 197.296 150.071,195.557 151.359,194.282 152.171 C 192.521 153.293,191.523 154.338,190.127 156.524 C 189.117 158.106,187.774 159.993,187.142 160.717 C 185.790 162.269,183.986 165.761,183.032 168.675 C 182.658 169.816,181.654 171.830,180.800 173.151 C 178.198 177.177,177.940 178.244,176.764 189.800 C 175.072 206.427,176.502 221.431,180.405 228.000 C 181.254 229.430,182.394 231.791,182.936 233.246 C 184.425 237.236,185.048 238.257,187.527 240.759 C 188.777 242.021,190.233 243.896,190.763 244.926 C 191.777 246.900,196.850 251.790,199.073 252.936 L 200.345 253.592 203.073 251.092 C 204.573 249.717,206.372 248.186,207.072 247.689 C 207.771 247.192,209.348 245.394,210.575 243.693 C 211.802 241.992,213.333 239.914,213.977 239.076 C 214.621 238.238,215.637 236.258,216.234 234.676 C 217.551 231.187,219.431 227.352,219.997 227.002 C 221.411 226.128,224.448 215.539,225.168 208.965 C 226.550 196.368,224.448 179.786,220.652 173.334 C 219.854 171.978,218.641 169.278,217.956 167.334 C 216.262 162.528,215.439 161.017,213.338 158.851 C 212.350 157.833,211.102 156.146,210.565 155.102 C 209.938 153.883,208.982 152.822,207.894 152.137 C 206.962 151.551,205.249 150.464,204.087 149.723 C 200.924 147.704,200.003 147.640,198.146 149.307 M201.454 155.304 C 204.573 156.675,206.694 158.581,208.442 161.582 C 209.409 163.242,210.885 165.351,211.723 166.270 C 213.059 167.735,213.366 168.472,214.222 172.270 C 214.758 174.651,215.721 177.680,216.362 179.000 C 220.394 187.300,221.321 193.732,220.306 206.358 C 219.773 212.991,219.565 214.250,218.844 215.227 C 217.822 216.608,216.551 219.704,215.570 223.200 C 213.747 229.693,212.964 231.834,212.205 232.391 C 210.768 233.445,209.775 234.709,208.683 236.875 C 207.405 239.411,206.669 240.400,206.063 240.400 C 205.817 240.400,204.369 241.575,202.846 243.012 L 200.077 245.624 198.285 244.074 C 197.300 243.221,195.843 242.121,195.049 241.630 C 194.126 241.060,193.081 239.803,192.158 238.152 C 191.363 236.730,189.914 234.899,188.938 234.084 C 187.534 232.910,187.036 232.142,186.548 230.400 C 185.877 228.004,183.945 222.745,182.802 220.200 C 180.703 215.530,180.710 215.563,180.408 208.000 C 179.787 192.480,180.700 183.314,183.250 179.454 C 184.103 178.164,184.801 176.904,184.802 176.654 C 184.804 176.404,185.044 175.743,185.335 175.183 C 185.627 174.624,186.200 172.931,186.609 171.421 C 187.219 169.169,187.659 168.393,189.061 167.101 C 190.001 166.235,190.881 165.138,191.018 164.663 C 191.777 162.023,193.870 158.405,194.889 157.973 C 195.488 157.720,196.394 157.127,196.902 156.656 C 197.747 155.872,199.435 154.893,200.054 154.827 C 200.194 154.812,200.824 155.027,201.454 155.304 " stroke="none" fill="#5a3d2a" fill-rule="evenodd"></path></g></svg>